<svg width="20" height="20" viewBox="0 0 20 20" fill="#38E5FF" xmlns="http://www.w3.org/2000/svg">
  <path d="M2.08398 9.99998C2.08398 6.26803 2.08398 4.40205 3.24335 3.24268C4.40273 2.08331 6.2687 2.08331 10.0007 2.08331C13.7326 2.08331 15.5986 2.08331 16.758 3.24268C17.9173 4.40205 17.9173 6.26803 17.9173 9.99998C17.9173 13.7319 17.9173 15.5979 16.758 16.7573C15.5986 17.9166 13.7326 17.9166 10.0007 17.9166C6.2687 17.9166 4.40273 17.9166 3.24335 16.7573C2.08398 15.5979 2.08398 13.7319 2.08398 9.99998Z" stroke="#38E5FF" stroke-width="1.5" fill="none"/>
  <path d="M13.75 7.5C14.4404 7.5 15 6.94036 15 6.25C15 5.55964 14.4404 5 13.75 5C13.0596 5 12.5 5.55964 12.5 6.25C12.5 6.94036 13.0596 7.5 13.75 7.5Z" stroke="#38E5FF" stroke-width="1.5" fill="none"/>
  <path d="M13.3333 18.3333C12.8171 16.4791 11.6121 14.8184 9.89708 13.6118C8.04801 12.3108 5.72636 11.6222 3.34641 11.6689C3.06382 11.6683 2.78147 11.6773 2.5 11.6959" stroke="#38E5FF" stroke-width="1.5" stroke-linejoin="round" fill="none"/>
  <path d="M10.834 15C12.2519 13.8944 13.7794 13.3273 15.3225 13.3334C16.1975 13.3325 17.0683 13.518 17.9173 13.8848" stroke="#38E5FF" stroke-width="1.5" stroke-linejoin="round" fill="none"/>
</svg>
