<svg width="20" height="20" viewBox="0 0 20 20" fill="none" xmlns="http://www.w3.org/2000/svg">
  <path d="M8.75 6.66669H15.4167M8.75 10H10.8333M15.4167 10H13.3333M8.75 13.3334H10.8333M15.4167 13.3334H13.3333" stroke="#38E5FF" stroke-width="1.5" stroke-linecap="round" stroke-linejoin="round"/>
  <path d="M5.83268 6.25H4.99935C3.428 6.25 2.64232 6.25 2.15417 6.73816C1.66602 7.22631 1.66602 8.01198 1.66602 9.58333V15C1.66602 16.1506 2.59876 17.0833 3.74935 17.0833C4.89994 17.0833 5.83268 16.1506 5.83268 15V6.25Z" stroke="#38E5FF" stroke-width="1.5" stroke-linecap="round" stroke-linejoin="round"/>
  <path d="M13.3333 2.91669H9.16667C8.39167 2.91669 8.0042 2.91669 7.68628 3.00187C6.82356 3.23304 6.14968 3.90691 5.91852 4.76964C5.83333 5.08755 5.83333 5.47505 5.83333 6.25002V15C5.83333 16.1506 4.90059 17.0834 3.75 17.0834H13.3333C15.6903 17.0834 16.8688 17.0834 17.6011 16.3511C18.3333 15.6189 18.3333 14.4404 18.3333 12.0834V7.91669C18.3333 5.55966 18.3333 4.38115 17.6011 3.64892C16.8688 2.91669 15.6903 2.91669 13.3333 2.91669Z" stroke="#38E5FF" stroke-width="1.5" stroke-linecap="round" stroke-linejoin="round"/>
</svg>
