<svg width="22" height="22" viewBox="0 0 22 22" fill="none" xmlns="http://www.w3.org/2000/svg">
<path d="M10.5417 19.9375C5.36254 19.9375 1.14587 15.7209 1.14587 10.5417C1.14587 5.36254 5.36254 1.14587 10.5417 1.14587C15.7209 1.14587 19.9375 5.36254 19.9375 10.5417C19.9375 15.7209 15.7209 19.9375 10.5417 19.9375ZM10.5417 2.52087C6.11421 2.52087 2.52087 6.12337 2.52087 10.5417C2.52087 14.96 6.11421 18.5625 10.5417 18.5625C14.9692 18.5625 18.5625 14.96 18.5625 10.5417C18.5625 6.12337 14.9692 2.52087 10.5417 2.52087Z" fill="#A1A1AA"/>
<path d="M20.1667 20.8542C19.9926 20.8542 19.8184 20.7901 19.6809 20.6526L17.8476 18.8192C17.5817 18.5534 17.5817 18.1134 17.8476 17.8476C18.1134 17.5817 18.5534 17.5817 18.8192 17.8476L20.6526 19.6809C20.9184 19.9467 20.9184 20.3867 20.6526 20.6526C20.5151 20.7901 20.3409 20.8542 20.1667 20.8542Z" fill="#A1A1AA"/>
</svg>
