<svg width="17" height="16" viewBox="0 0 17 16" fill="none" xmlns="http://www.w3.org/2000/svg">
    <path
        d="M15.2938 0.497466C15.0931 0.512063 14.8962 0.559134 14.7106 0.636841H14.7081C14.53 0.707466 13.6831 1.06372 12.3956 1.60372L7.78189 3.54684C4.47126 4.94059 1.21689 6.31309 1.21689 6.31309L1.25564 6.29809C1.25564 6.29809 1.03126 6.37184 0.796888 6.53247C0.652093 6.6246 0.527497 6.74516 0.430638 6.88684C0.315638 7.05559 0.223138 7.31372 0.257513 7.58059C0.313763 8.03184 0.606263 8.30247 0.816263 8.45184C1.02876 8.60309 1.23126 8.67372 1.23126 8.67372H1.23626L4.28814 9.70184C4.42501 10.1412 5.21814 12.7487 5.40876 13.3493C5.52126 13.7081 5.63064 13.9325 5.76751 14.1037C5.83376 14.1912 5.91126 14.2643 6.00439 14.3231C6.0528 14.3513 6.10442 14.3735 6.15814 14.3893L6.12689 14.3818C6.13626 14.3843 6.14376 14.3918 6.15064 14.3943C6.17564 14.4012 6.19251 14.4037 6.22439 14.4087C6.70751 14.555 7.09564 14.255 7.09564 14.255L7.11751 14.2375L8.91939 12.5968L11.9394 14.9137L12.0081 14.9431C12.6375 15.2193 13.275 15.0656 13.6119 14.7943C13.9513 14.5212 14.0831 14.1718 14.0831 14.1718L14.105 14.1156L16.4388 2.15997C16.505 1.86497 16.5219 1.58872 16.4488 1.32059C16.3733 1.04923 16.1993 0.815845 15.9606 0.666216C15.7603 0.544413 15.5279 0.485621 15.2938 0.497466ZM15.2306 1.77872C15.2281 1.81809 15.2356 1.81372 15.2181 1.88934V1.89622L12.9063 13.7275C12.8963 13.7443 12.8794 13.7812 12.8331 13.8181C12.7844 13.8568 12.7456 13.8812 12.5425 13.8006L8.84876 10.9687L6.61751 13.0025L7.08626 10.0087L13.1213 4.38372C13.37 4.15247 13.2869 4.10372 13.2869 4.10372C13.3044 3.81997 12.9113 4.02059 12.9113 4.02059L5.30126 8.73497L5.29876 8.72247L1.65126 7.49434V7.49184L1.64189 7.48997C1.64828 7.48784 1.65454 7.48534 1.66064 7.48247L1.68064 7.47247L1.70001 7.46559C1.70001 7.46559 4.95689 6.09309 8.26751 4.69934C9.92501 4.00122 11.595 3.29809 12.8794 2.75559C13.6411 2.43497 14.4036 2.11622 15.1669 1.79934C15.2181 1.77934 15.1938 1.77872 15.2306 1.77872Z"
        fill="white" />
</svg>