<svg width="20" height="20" viewBox="0 0 20 20" fill="none" xmlns="http://www.w3.org/2000/svg">
  <path d="M12.4609 10.329C12.3347 10.8512 11.7381 11.2203 10.5449 11.9585C9.39142 12.672 8.81475 13.0288 8.34992 12.8854C8.15778 12.8261 7.98271 12.7135 7.84152 12.5583C7.5 12.1831 7.5 11.4554 7.5 9.99998C7.5 8.54456 7.5 7.81679 7.84152 7.4416C7.98271 7.28649 8.15778 7.17388 8.34992 7.11459C8.81475 6.97118 9.39142 7.32795 10.5449 8.0415C11.7381 8.77964 12.3347 9.14873 12.4609 9.67098C12.513 9.88656 12.513 10.1134 12.4609 10.329Z" stroke="#38E5FF" stroke-width="1.5" stroke-linejoin="round"/>
  <path d="M2.08398 9.99998C2.08398 6.26803 2.08398 4.40205 3.24335 3.24268C4.40273 2.08331 6.2687 2.08331 10.0007 2.08331C13.7326 2.08331 15.5986 2.08331 16.758 3.24268C17.9173 4.40205 17.9173 6.26803 17.9173 9.99998C17.9173 13.7319 17.9173 15.5979 16.758 16.7573C15.5986 17.9166 13.7326 17.9166 10.0007 17.9166C6.2687 17.9166 4.40273 17.9166 3.24335 16.7573C2.08398 15.5979 2.08398 13.7319 2.08398 9.99998Z" stroke="#38E5FF" stroke-width="1.5"/>
</svg>
